<svg width="384" height="384" viewBox="0 0 384 384" fill="none" xmlns="http://www.w3.org/2000/svg">
<path d="M27.6015 366.495L22.9163 177.408L27.7805 116.883L59.3865 113.156L256.505 113.298L312.748 113.338L325.052 135.844L349.142 155.68L349.03 311.554L348.99 366.726L324.877 379.028L45.8047 378.828L27.6015 366.495Z" fill="#509DB1"/>
<rect x="54.5309" y="161.361" width="277.466" height="201.404" rx="18" transform="rotate(0.0411021 54.5309 161.361)" fill="#478EAA"/>
<path d="M165.409 283.937L153.007 310.181L152.998 321.573L233.737 321.631L231.276 299.835L217.418 283.974L205.541 269.601L205.553 252.76L182.272 252.743L182.26 269.585L165.409 283.937Z" fill="#E2FFFF"/>
<path d="M244.734 183.442L143.191 183.369L143.195 176.93L244.738 177.003L244.734 183.442Z" fill="#D59C7F"/>
<path d="M244.612 352.845L143.069 352.772L143.074 346.333L244.617 346.406L244.612 352.845Z" fill="#D59C7F"/>
<path d="M244.242 177.498L142.7 177.425L142.704 170.985L244.247 171.058L244.242 177.498Z" fill="#FDF2DE"/>
<path d="M244.616 346.901L143.074 346.828L143.078 340.389L244.621 340.462L244.616 346.901Z" fill="#FDF2DE"/>
<path d="M151.59 213.095L155.07 196.256L158.045 191.8L229.372 191.852L234.31 213.154L218.463 209.18L193.689 219.564L171.406 209.147L151.59 213.095Z" fill="#E2FFFF"/>
<path d="M161.48 235.887L153.077 212.105L171.407 208.651L187.746 217.083L198.644 217.091L218.464 207.694L234.806 212.164L224.387 235.932L204.066 253.254L193.165 259.686L182.272 253.239L161.48 235.887Z" fill="#FFE0B7"/>
<path d="M151.094 213.893C151.094 213.893 162.551 207.023 170.416 207.707C178.694 208.426 183.659 218.567 193.689 218.574C203.72 218.581 208.699 208.448 216.978 207.74C224.844 207.068 236.291 213.954 236.291 213.954" stroke="#171A38" stroke-width="5"/>
<path d="M172.319 318.12L153.496 318.106L159.92 338.915L193.108 338.939L226.295 338.962L232.749 318.163L213.926 318.15L193.129 309.219L172.319 318.12Z" fill="#FFE0B7"/>
<path d="M151.022 314.592C151.022 314.592 162.47 319.213 170.337 318.569C178.616 317.891 183.667 308.176 193.625 308.183C203.583 308.191 208.62 317.912 216.898 318.602C224.764 319.258 236.219 314.653 236.219 314.653" stroke="#171A38" stroke-width="5"/>
<rect x="155.963" y="331.482" width="72.3183" height="5.94397" transform="rotate(0.0411021 155.963 331.482)" fill="#D8B58F"/>
<path d="M231.351 195.32L157.051 195.267L160.03 185.858L224.918 185.904L231.351 195.32Z" fill="#96EAF2"/>
<path d="M159.513 217.063C157.349 218.792 158.022 223.997 158.022 223.997L163.461 236.384L178.313 248.282C178.313 248.282 194.969 262.544 193.167 256.219C192.179 252.75 190.697 246.31 180.3 240.359C169.902 234.407 164.469 213.104 159.513 217.063Z" fill="#D8B58F"/>
<path d="M213.98 243.85C213.98 243.85 201.589 254.243 195.643 257.706C189.447 261.314 199.532 248.463 211.509 235.428C217.222 229.21 223.404 225.53 225.887 217.606C226.928 214.284 234.803 217.117 234.803 217.117L213.98 243.85Z" fill="#D8B58F"/>
<path d="M193.663 255.228L193.645 280.985" stroke="#171A38" stroke-width="4" stroke-linecap="round"/>
<path d="M193.638 289.901L193.634 296.341" stroke="#171A38" stroke-width="4" stroke-linecap="round"/>
<path d="M193.477 170.031L145.43 169.997C141.882 169.994 140.147 173.751 140.226 177.423C140.301 180.93 142.032 184.359 145.42 184.361L160.279 184.372M160.279 184.372L193.466 184.396M160.279 184.372C160.279 184.372 150.62 202.577 151.838 213.59C153.923 232.458 168.562 237.391 179.55 249.77C183.51 254.23 183.508 257.202 183.504 262.154L183.504 262.157C183.501 267.109 183.499 270.081 179.533 274.536C168.526 286.899 153.881 291.811 151.768 310.675C151.575 312.397 151.648 314.296 151.908 316.273M193.344 354.294L145.298 354.26C138.362 354.255 138.373 339.89 145.308 339.895L160.168 339.906M160.168 339.906L193.355 339.93M160.168 339.906C160.168 339.906 154.067 328.367 152.197 318.106C152.085 317.489 151.988 316.877 151.908 316.273M151.908 316.273C151.496 316.179 151.269 316.124 151.269 316.124M192.601 354.294L240.648 354.328C247.583 354.333 247.593 339.969 240.658 339.964L225.799 339.953M225.799 339.953L192.612 339.929M225.799 339.953C225.799 339.953 231.916 328.423 233.8 318.164C233.914 317.548 234.012 316.936 234.092 316.332M234.092 316.332C234.355 314.355 234.431 312.457 234.24 310.734C232.196 292.245 217.861 286.765 207.023 274.556C203.064 270.095 203.066 267.121 203.069 262.168C203.073 257.216 202.579 254.244 206.545 249.789C217.552 237.426 232.197 232.514 234.31 213.65C235.543 202.638 225.91 184.419 225.91 184.419M234.092 316.332C234.504 316.238 234.732 316.183 234.732 316.183M192.734 170.031L240.78 170.065C247.716 170.07 247.705 184.435 240.77 184.43L225.91 184.419M225.91 184.419L192.723 184.395" stroke="#171A38" stroke-width="8"/>
<rect x="54.5309" y="161.361" width="277.466" height="201.404" rx="18" transform="rotate(0.0411021 54.5309 161.361)" fill="#478EAA"/>
<path d="M319.551 336.708C306.832 345.124 302.406 343.282 285.792 354.36C280.52 357.876 279.349 376.853 279.349 376.853L325.197 376.886L350.063 364.61C350.063 364.61 354.918 316.915 350.097 316.911C341.118 316.905 334.435 326.859 319.551 336.708Z" fill="#4283A3"/>
<path d="M135.817 346.218C136.776 336.575 141.183 332.831 152.431 332.839C155.345 332.841 158.319 339.807 158.319 339.807L223.132 339.853L229.029 332.894C229.029 332.894 239.248 332.982 244.025 335.583C250.371 339.037 249.159 341.479 249.91 346.3C250.785 351.923 245.079 360.223 245.079 360.223L301.858 360.264C305.019 360.266 308.201 363.605 312.375 366.848L318.991 370.989C328.277 375.185 342.02 376.362 342.02 376.362L264.347 381.127L87.0477 381C87.0477 381 28.1294 376.673 37.2363 375.608C41.3915 375.122 72.0554 372.955 83.3059 370.285C89.0698 368.917 62.391 360.092 68.315 360.097L139.021 360.147C139.021 360.147 135.232 352.095 135.817 346.218Z" fill="#365C83"/>
<path d="M165.409 283.937L153.007 310.181L152.998 321.573L233.737 321.631L231.276 299.835L217.418 283.974L205.541 269.601L205.553 252.76L182.272 252.743L182.26 269.585L165.409 283.937Z" fill="#E2FFFF"/>
<path d="M244.734 183.442L143.191 183.369L143.195 176.93L244.738 177.003L244.734 183.442Z" fill="#D59C7F"/>
<path d="M244.612 352.845L143.069 352.772L143.074 346.333L244.617 346.406L244.612 352.845Z" fill="#D59C7F"/>
<path d="M244.242 177.498L142.7 177.425L142.704 170.985L244.247 171.058L244.242 177.498Z" fill="#FDF2DE"/>
<path d="M244.616 346.901L143.074 346.828L143.078 340.389L244.621 340.462L244.616 346.901Z" fill="#FDF2DE"/>
<path d="M151.59 213.095L155.07 196.256L158.045 191.8L229.372 191.852L234.31 213.154L218.463 209.18L193.689 219.564L171.406 209.147L151.59 213.095Z" fill="#E2FFFF"/>
<path d="M161.48 235.887L153.077 212.105L171.407 208.651L187.746 217.083L198.644 217.091L218.464 207.694L234.806 212.164L224.387 235.932L204.066 253.254L193.165 259.686L182.272 253.239L161.48 235.887Z" fill="#FFE0B7"/>
<path d="M151.094 213.893C151.094 213.893 162.551 207.023 170.416 207.707C178.694 208.426 183.659 218.567 193.689 218.574C203.72 218.581 208.699 208.448 216.978 207.74C224.844 207.068 236.291 213.954 236.291 213.954" stroke="#171A38" stroke-width="5"/>
<path d="M172.319 318.12L153.496 318.106L159.92 338.915L193.108 338.939L226.295 338.962L232.749 318.163L213.926 318.15L193.129 309.219L172.319 318.12Z" fill="#FFE0B7"/>
<path d="M151.022 314.592C151.022 314.592 162.47 319.213 170.337 318.569C178.616 317.891 183.667 308.176 193.625 308.183C203.583 308.191 208.62 317.912 216.898 318.602C224.764 319.258 236.219 314.653 236.219 314.653" stroke="#171A38" stroke-width="5"/>
<rect x="155.963" y="331.482" width="72.3183" height="5.94397" transform="rotate(0.0411021 155.963 331.482)" fill="#D8B58F"/>
<path d="M231.351 195.32L157.051 195.267L160.03 185.858L224.918 185.904L231.351 195.32Z" fill="#96EAF2"/>
<path d="M159.513 217.063C157.349 218.792 158.022 223.997 158.022 223.997L163.461 236.384L178.313 248.282C178.313 248.282 194.969 262.544 193.167 256.219C192.179 252.75 190.697 246.31 180.3 240.359C169.902 234.407 164.469 213.104 159.513 217.063Z" fill="#D8B58F"/>
<path d="M213.98 243.85C213.98 243.85 201.589 254.243 195.643 257.706C189.447 261.314 199.532 248.463 211.509 235.428C217.222 229.21 223.404 225.53 225.887 217.606C226.928 214.284 234.803 217.117 234.803 217.117L213.98 243.85Z" fill="#D8B58F"/>
<path d="M193.663 255.228L193.645 280.985" stroke="#171A38" stroke-width="4" stroke-linecap="round"/>
<path d="M193.638 289.901L193.634 296.341" stroke="#171A38" stroke-width="4" stroke-linecap="round"/>
<path d="M193.477 170.031L145.43 169.997C141.882 169.994 140.147 173.751 140.226 177.423C140.301 180.93 142.032 184.359 145.42 184.361L160.279 184.372M160.279 184.372L193.466 184.396M160.279 184.372C160.279 184.372 150.62 202.577 151.838 213.59C153.923 232.458 168.562 237.391 179.55 249.769C183.51 254.23 183.508 257.202 183.504 262.154L183.504 262.157C183.501 267.109 183.499 270.081 179.533 274.536C168.526 286.899 153.881 291.811 151.768 310.675C151.575 312.397 151.648 314.296 151.908 316.273M193.344 354.294L145.298 354.26C138.362 354.255 138.373 339.89 145.308 339.895L160.168 339.906M160.168 339.906L193.355 339.93M160.168 339.906C160.168 339.906 154.067 328.367 152.197 318.105C152.085 317.489 151.988 316.877 151.908 316.273M151.908 316.273C151.496 316.179 151.269 316.124 151.269 316.124M192.601 354.294L240.648 354.328C247.583 354.333 247.593 339.968 240.658 339.964L225.799 339.953M225.799 339.953L192.612 339.929M225.799 339.953C225.799 339.953 231.916 328.423 233.8 318.164C233.914 317.548 234.012 316.936 234.092 316.332M234.092 316.332C234.355 314.355 234.431 312.457 234.24 310.734C232.196 292.245 217.861 286.764 207.023 274.556C203.064 270.095 203.066 267.121 203.069 262.168C203.073 257.216 202.579 254.244 206.545 249.789C217.552 237.426 232.197 232.514 234.31 213.65C235.543 202.638 225.91 184.419 225.91 184.419M234.092 316.332C234.504 316.238 234.732 316.183 234.732 316.183M192.734 170.031L240.78 170.065C247.716 170.07 247.705 184.435 240.77 184.43L225.91 184.419M225.91 184.419L192.723 184.395" stroke="#171A38" stroke-width="8"/>
<path d="M349.085 234.421L306.625 234.39C301.458 234.386 296.574 236.752 293.373 240.808V240.808" stroke="#396E95" stroke-width="9"/>
<path d="M302.432 307.235C290.647 307.227 278.341 287.935 278.341 287.935L351.719 296.022L351.711 307.271C351.711 307.271 349.581 311.554 345.816 311.552C339.388 311.547 340.312 307.263 336.713 307.26L302.432 307.235Z" fill="#396E95"/>
<path fill-rule="evenodd" clip-rule="evenodd" d="M325.044 146.557C337.135 146.566 349.668 168.536 349.668 168.536L343.794 143.892L306.84 135.831L56.1563 135.651L35.6062 130.828C35.6062 130.828 36.3794 122.372 42.0784 120.39C50.7089 117.389 78.6654 119.062 78.6654 119.062L69.9336 110.464L52.9616 108.866L34.6223 115.909L23.4856 130.271L23.481 136.699L32.0471 142.597C32.0471 142.597 42.2016 146.354 47.5782 146.358L325.044 146.557Z" fill="#FDF2DE"/>
<path d="M23.3258 353.101C23.3258 353.101 31.4567 369.523 43.8881 370.526C33.1805 363.02 32.967 353.643 32.967 353.643L32.0471 142.597L23.481 136.699L23.3258 353.101Z" fill="#DCF7FE"/>
<path d="M297.746 119.219C271.5 118.129 229.182 119.706 234.004 118.102C234.166 115.563 235.08 111.675 235.08 111.675L304.179 111.725L315.422 119.232L325.052 134.773L317.553 134.767C317.553 134.767 308.669 119.673 297.746 119.219Z" fill="#FDF2DE"/>
<path d="M325.053 133.958L322.914 129.136L321.709 126.541C317.287 117.014 307.742 110.916 297.238 110.908L240.316 110.867L95.8672 110.763L59.0608 110.737L49.2539 110.73C34.3424 110.719 22.2456 122.799 22.2348 137.71L22.2034 180.871L22.2268 352.187C22.2288 367.098 34.3187 379.185 49.2304 379.183L323.892 379.146C338.794 379.144 350.877 367.14 350.888 352.237C350.925 299.809 351.005 188.085 351.013 176.829C351.013 176.829 351.013 176.829 351.013 176.829C351.013 176.829 351.017 171.613 351.023 162.711C351.034 147.8 338.963 135.701 324.052 135.69C237.093 135.628 83.4146 135.517 51.3909 135.494C48.075 135.492 44.0939 134.766 41.4855 132.719V132.719C41.1529 132.458 39.7972 131.423 40.0398 131.077C40.2002 130.848 40.5101 130.57 40.9122 130.264C43.7304 128.114 47.3382 127.255 50.8827 127.257C67.7681 127.269 98.2667 127.291 98.2667 127.291C98.2667 127.291 98.2668 127.291 98.2667 127.291L293.676 127.431C299.808 127.436 305.756 129.527 310.541 133.362L312.592 135.005" stroke="#171A38" stroke-width="9"/>
<path d="M365.114 290.675L365.143 249.966L277.297 249.903L270.317 272.395L291.726 297.05L353.861 297.095L365.114 290.675Z" fill="#478EAA"/>
<path d="M277.806 286.863L273.537 264.363C273.537 264.363 280.922 260.609 284.79 259.014C287.811 257.769 290.682 259.019 290.682 259.019L303.539 256.35C303.539 256.35 310.618 264.319 313.17 271.355C315.503 277.784 297.309 286.877 303.517 286.882L354.404 286.918C361.903 283.644 353.597 264.794 361.385 262.283C363.973 261.449 365.133 264.428 365.133 264.428L365.117 286.926L358.148 294.955L327.078 297.611L300.045 294.914L277.806 286.863Z" fill="#396E95"/>
<path d="M279.442 247.226C279.442 247.226 270.958 263.978 277.287 263.83C280.885 263.746 279.348 260.996 284.79 257.943C289.467 255.32 291.754 250.449 297.116 250.453L352.292 250.492C360.057 251.047 363.724 257.374 363.724 257.374L360.328 242.999L344.796 240.31L314.264 240.288L279.442 247.226Z" fill="#FDF2DE"/>
<path d="M271.071 267.97C271.082 252.487 283.643 239.945 299.126 239.956L352.507 239.994C359.963 240 366.003 246.048 365.998 253.504L365.977 282.573C365.971 290.029 359.923 296.068 352.467 296.063L299.086 296.025C283.603 296.014 271.06 283.453 271.071 267.97Z" stroke="#171A38" stroke-width="9"/>
<path d="M310.28 267.067C310.275 273.619 304.748 279.168 297.631 279.163C290.514 279.158 284.994 273.601 284.999 267.049C285.003 260.497 290.531 254.948 297.648 254.953C304.765 254.958 310.285 260.516 310.28 267.067Z" fill="#FDF2DE" stroke="#171A38" stroke-width="9"/>
<path d="M323.428 158.34L326.092 158.342C331.336 158.346 335.5 162.754 335.206 167.99V167.99" stroke="black" stroke-width="3" stroke-linecap="round"/>
<path d="M335.072 354.396L335.07 357.059C335.067 362.303 330.658 366.468 325.422 366.173V366.173" stroke="black" stroke-width="3" stroke-linecap="round"/>
<path d="M67.3888 158.157L79.7087 158.165" stroke="black" stroke-width="3" stroke-linecap="round"/>
<path d="M90.9573 158.173L103.277 158.182" stroke="black" stroke-width="3" stroke-linecap="round"/>
<path d="M114.526 158.19L123.096 158.196" stroke="black" stroke-width="3" stroke-linecap="round"/>
<path d="M134.88 158.205L149.879 158.216" stroke="black" stroke-width="3" stroke-linecap="round"/>
<path d="M161.663 158.224L175.59 158.234" stroke="black" stroke-width="3" stroke-linecap="round"/>
<path d="M185.231 158.241L193.802 158.247" stroke="black" stroke-width="3" stroke-linecap="round"/>
<path d="M204.515 158.255L220.584 158.266" stroke="black" stroke-width="3" stroke-linecap="round"/>
<path d="M232.369 158.275L244.688 158.284" stroke="black" stroke-width="3" stroke-linecap="round"/>
<path d="M255.937 158.292L272.006 158.303" stroke="black" stroke-width="3" stroke-linecap="round"/>
<path d="M285.933 158.313L291.29 158.317" stroke="black" stroke-width="3" stroke-linecap="round"/>
<path d="M300.932 158.324L313.251 158.333" stroke="black" stroke-width="3" stroke-linecap="round"/>
<path d="M335.199 177.632L335.194 184.06" stroke="black" stroke-width="3" stroke-linecap="round"/>
<path d="M335.189 191.559L335.176 209.771" stroke="black" stroke-width="3" stroke-linecap="round"/>
<path d="M335.166 223.698L335.161 230.125" stroke="black" stroke-width="3" stroke-linecap="round"/>
<path d="M335.108 305.116L335.095 323.328" stroke="black" stroke-width="3" stroke-linecap="round"/>
<path d="M335.085 337.255L335.08 343.683" stroke="black" stroke-width="3" stroke-linecap="round"/>
<path d="M314.709 366.165L308.281 366.161" stroke="black" stroke-width="3" stroke-linecap="round"/>
<path d="M294.354 366.151L275.071 366.137" stroke="black" stroke-width="3" stroke-linecap="round"/>
<path d="M266.501 366.131L256.859 366.124" stroke="black" stroke-width="3" stroke-linecap="round"/>
<path d="M248.289 366.118L225.791 366.102" stroke="black" stroke-width="3" stroke-linecap="round"/>
<path d="M212.936 366.092L207.58 366.089" stroke="black" stroke-width="3" stroke-linecap="round"/>
<path d="M196.867 366.081L186.154 366.073" stroke="black" stroke-width="3" stroke-linecap="round"/>
<path d="M179.726 366.069L160.443 366.055" stroke="black" stroke-width="3" stroke-linecap="round"/>
<path d="M149.729 366.047L135.803 366.037" stroke="black" stroke-width="3" stroke-linecap="round"/>
<path d="M126.161 366.03L109.02 366.018" stroke="black" stroke-width="3" stroke-linecap="round"/>
<path d="M100.45 366.012L79.024 365.996" stroke="black" stroke-width="3" stroke-linecap="round"/>
<ellipse cx="93.5472" cy="280.839" rx="1.60694" ry="1.60694" transform="rotate(0.0411021 93.5472 280.839)" fill="#0E3757"/>
<circle cx="123.046" cy="227.831" r="1.0713" transform="rotate(0.0411021 123.046 227.831)" fill="#0E3757"/>
<circle cx="283.758" cy="204.377" r="1.0713" transform="rotate(0.0411021 283.758 204.377)" fill="#146C91"/>
<ellipse cx="91.3972" cy="291.55" rx="1.60694" ry="1.60694" transform="rotate(0.0411021 91.3972 291.55)" fill="#0E3757"/>
<circle cx="281.007" cy="304.542" r="2.67824" transform="rotate(0.0411021 281.007 304.542)" fill="#0E3757"/>
<ellipse cx="320.676" cy="261.718" rx="1.60694" ry="1.60694" transform="rotate(0.0411021 320.676 261.718)" fill="#0E3757"/>
<circle cx="65.6438" cy="350.453" r="2.67824" transform="rotate(0.0411021 65.6438 350.453)" fill="#275070"/>
<circle cx="283.142" cy="316.328" r="2.67824" transform="rotate(0.0411021 283.142 316.328)" fill="#0E3757"/>
<circle cx="317.944" cy="337.243" r="2.14259" transform="rotate(0.0411021 317.944 337.243)" fill="#315C7E"/>
<circle cx="2.67824" cy="2.67824" r="2.67824" transform="matrix(1 0.000717367 0.000717367 -1 84.4596 255.657)" fill="#387896"/>
<circle cx="2.14259" cy="2.14259" r="2.14259" transform="matrix(1 0.000717367 0.000717367 -1 274.024 331.855)" fill="#387896"/>
<circle cx="2.14259" cy="2.14259" r="2.14259" transform="matrix(1 0.000717367 0.000717367 -1 300.921 173.322)" fill="#387896"/>
<circle cx="2.14259" cy="2.14259" r="2.14259" transform="matrix(1 0.000717367 0.000717367 -1 347.987 271.915)" fill="#387896"/>
<circle cx="2.14259" cy="2.14259" r="2.14259" transform="matrix(1 0.000717367 0.000717367 -1 114.502 191.401)" fill="#387896"/>
<circle cx="2.14259" cy="2.14259" r="2.14259" transform="matrix(1 0.000717367 0.000717367 -1 43.8073 176.352)" fill="#387896"/>
<circle cx="2.14259" cy="2.14259" r="2.14259" transform="matrix(1 0.000717367 0.000717367 -1 48.0461 240.632)" fill="#387896"/>
<circle cx="2.14259" cy="2.14259" r="2.14259" transform="matrix(1 0.000717367 0.000717367 -1 47.9808 331.693)" fill="#387896"/>
<circle cx="2.14259" cy="2.14259" r="2.14259" transform="matrix(1 0.000717367 0.000717367 -1 324.415 276.184)" fill="#387896"/>
<circle cx="1.0713" cy="1.0713" r="1.0713" transform="matrix(1 0.000717367 0.000717367 -1 337.278 265.48)" fill="#387896"/>
<circle cx="2.14259" cy="2.14259" r="2.14259" transform="matrix(1 0.000717367 0.000717367 -1 43.6903 339.189)" fill="#387896"/>
<circle cx="41.0241" cy="322.582" r="2.67824" transform="rotate(0.0411021 41.0241 322.582)" fill="#135B74"/>
<ellipse cx="47.4715" cy="294.733" rx="1.60694" ry="1.60694" transform="rotate(0.0411021 47.4715 294.733)" fill="#135B74"/>
<circle cx="322.317" cy="214.047" r="2.14259" transform="rotate(0.0411021 322.317 214.047)" fill="#286F8D"/>
<ellipse cx="316.422" cy="218.863" rx="1.60694" ry="1.60694" transform="rotate(0.0411021 316.422 218.863)" fill="#106B92"/>
<path d="M137.446 87.5328C108.328 71.1581 92.0739 65.7443 57.8952 65.3477C60.2188 96.9322 68.1155 111.656 92.6866 133.169C92.6866 133.169 193.442 129.946 195.795 131.831C197.212 132.966 239.331 118.989 262.679 90.9183C278.092 72.3882 278.972 49.457 282.032 21.7231C260.374 23.12 258.436 21.0577 239.184 28.7545L203.856 52.7405L171.391 23.0561C157.215 14.1881 148.701 10.3056 131.383 7.4907C125.455 23.2428 125.356 32.1171 127.588 47.9777L137.446 87.5328Z" fill="#FDF2DE"/>
<path d="M134.673 15.9677C133.26 16.4375 129.484 30.0882 129.484 30.0882L126.178 44.681L137.921 82.825L166.606 130.868L192.503 126.65L200.528 97.9359L206.675 61.2171C206.675 61.2171 197.261 57.4439 195.38 54.6177C183.622 36.9538 139.855 11.2633 134.673 15.9677Z" fill="#7ED964"/>
<path d="M278.727 35.3742C278.727 35.3742 278.729 32.0785 275.906 29.7225C273.083 27.3664 258.389 28.3728 240.59 36.7593C221.71 45.6551 204.794 57.9201 204.794 57.9201L192.974 127.121L212.28 122.426L247.132 105.502L270.693 77.2706L279.186 51.3821L278.727 35.3742Z" fill="#7ED964"/>
<path d="M281.548 40.5552C281.548 40.5552 284.382 27.8453 281.556 29.7265C279.389 31.1687 270.6 55.3316 262.695 69.2611C260.288 73.5023 258.925 73.9665 255.157 76.3179C251.389 78.6692 222.672 74.4113 222.672 74.4113L207.592 95.1161L192.502 128.062L215.106 120.545L260.793 95.1543L279.647 65.9776L281.548 40.5552Z" fill="#51A452"/>
<path d="M208.089 58.3933C210.443 57.9241 212.788 70.6377 212.788 70.6377L217.018 80.5278L203.825 96.0551L203.848 64.04C203.848 64.04 205.735 58.8624 208.089 58.3933Z" fill="#51A452"/>
<path d="M149.697 74.8297C145.934 68.7065 130.427 27.7349 130.427 27.7349L130.4 64.9289L145.915 96.0135L167.547 131.34L180.73 131.349L176.514 101.685C176.514 101.685 174.643 83.793 169.465 82.3769C164.287 80.9607 153.459 80.953 149.697 74.8297Z" fill="#51A452"/>
<path d="M178.396 102.157C178.396 102.157 193.943 88.515 195.358 85.2203C195.358 85.2203 195.623 84.3376 195.977 82.9915C196.583 80.1468 197.207 75.1844 196.781 69.6846C195.998 59.5775 193.03 48.0246 193.03 48.0246C203.381 57.9191 206.012 74.2887 203.357 91.3466L192.974 126.65L180.73 130.408L178.396 102.157Z" fill="#51A452"/>
<path d="M72.486 71.4787C60.7154 71.941 62.5942 78.0629 62.5942 78.0629C65.0147 100.432 70.6929 111.97 90.3345 130.343L168.489 130.399C139.907 88.9643 84.2566 71.0163 72.486 71.4787Z" fill="#7ED964"/>
<path d="M90.3435 118.102C84.226 113.86 62.5951 77.1213 62.5951 77.1213L67.7551 103.49L90.3351 129.872L141.653 129.909C141.653 129.909 133.656 120.487 131.302 120.485C128.948 120.483 96.461 122.343 90.3435 118.102Z" fill="#51A452"/>
<path d="M171.313 132.284C171.313 132.284 184.319 132.293 202.979 132.307M171.313 132.284C171.313 132.284 179.491 128.877 171.324 115.806C165.111 105.86 137.937 87.5213 134.598 77.1663C126.258 51.3022 123.977 19.4016 128.429 6.07616C139.092 6.08385 178.206 19.2654 198.206 52.2656M171.313 132.284L202.979 132.307M202.979 132.307C205.321 132.308 188.809 134.999 190.618 129.473M198.206 52.2656C212.271 75.4731 195.537 114.443 190.618 129.473M198.206 52.2656C198.206 52.2656 233.109 20.3817 281.09 22.1932C284.633 39.0786 276.117 78.0238 256.554 98.4469C235.511 120.415 190.618 129.473 190.618 129.473M91.0181 132.226L167.435 132.281C139.943 58.5102 62.6332 63.7861 54.6348 65.5576C53.7418 71.7769 69.7045 116.217 91.0181 132.226Z" stroke="#171A38" stroke-width="9"/>
<path d="M223.143 74.8824C230.855 73.9148 234.22 72.8663 238.683 70.1855M204.599 100.293C209.923 99.476 213 98.5321 218.727 95.5949M217.962 77.7036C213.73 71.1092 213.49 68.9708 213.568 60.2805M180.729 132.291C179.282 110.426 176.484 94.6445 170.337 78.611M170.337 78.611C166.078 67.5026 160.212 56.2733 152.074 42.8163M170.337 78.611C165.341 77.2971 162.816 76.0501 159.042 72.4824M146.903 31.984L138.702 20.2078M144.949 130.382C142.9 127.751 140.794 125.243 138.629 122.844M138.629 122.844C140.027 116.043 140.447 112.229 138.641 105.425M138.629 122.844C132.746 116.328 126.429 110.615 119.632 105.411M118.14 92.2271C121.885 97.0288 122.239 100.269 121.896 106.354M172.76 84.2625C178.556 78.4983 180.911 74.4394 182.19 64.4952M200.52 108.384C213.71 80.3982 228.663 65.128 253.767 45.7315M119.632 105.411C104.906 94.1353 87.9287 85.2426 68.246 75.7129M119.632 105.411C114.236 107.187 110.8 107.141 104.006 105.4M270.725 33.0144C266.924 35.8108 263.319 38.4822 259.891 41.0641" stroke="#171A38" stroke-width="4" stroke-linecap="round" stroke-linejoin="round"/>
</svg>
